<?xml version="1.0" encoding="UTF-8"?>
<svg width="80px" height="85px" viewBox="0 0 80 85" version="1.1" xmlns="http://www.w3.org/2000/svg" xmlns:xlink="http://www.w3.org/1999/xlink">
    <title>icon03</title>
    <g id="Page-1" stroke="none" stroke-width="1" fill="none" fill-rule="evenodd">
        <g id="A-index" transform="translate(-943, -2358)" fill-rule="nonzero">
            <g id="icon03" transform="translate(943, 2358)">
                <path d="M39.9505359,13.3388293 L39.9505359,13.3388293 C39.6042869,13.3388293 39.2580379,13.4707337 39.0107172,13.7180544 C38.7633965,13.9653751 38.6314922,14.295136 38.6314922,14.657873 L38.6314922,23.6108821 C38.6314922,24.1549876 38.9612531,24.633141 39.4723825,24.8309975 C39.983512,25.0288541 40.5441055,24.8969497 40.9233306,24.5012366 C41.7477329,23.6273702 42.852432,23.1327288 44.0560594,23.1327288 C46.41385,23.1327288 48.3264633,25.0453421 48.3264633,27.4031327 C48.3264633,29.7609233 46.41385,31.6735367 44.0560594,31.6735367 C41.6982688,31.6735367 41.7477329,31.1953833 40.9233306,30.3050289 C40.5605936,29.9093157 39.983512,29.7774114 39.4723825,29.9752679 C38.9612531,30.1731245 38.6314922,30.6677659 38.6314922,31.1953833 L38.6314922,38.8293487 L33.5201979,38.8293487 C33.8994229,37.9554823 34.0972795,37.0156636 34.0972795,36.059357 C34.0972795,32.2506183 30.9975268,29.1508656 27.1887881,29.1508656 C23.3800495,29.1508656 20.2802968,32.2506183 20.2802968,36.059357 C20.2802968,39.8680956 20.4781533,37.9719703 20.8573784,38.8293487 L14.4270404,38.8293487 C13.7015664,38.8293487 13.1079967,39.4229184 13.1079967,40.1483924 C13.1079967,44.7980214 14.3116241,49.3816983 16.6034625,53.4047815 C18.8953009,57.4278648 22.2093982,60.8079143 26.1995054,63.198681 C27.4196208,63.924155 28.0791426,65.0948063 28.0791426,66.5127782 L28.0791426,72.7287716 C28.0791426,74.9381698 29.5630668,76.784831 31.5910965,77.3619126 L31.5910965,77.6092333 C31.5910965,81.1871393 34.5094806,84.1055235 38.0873866,84.1055235 L41.7477329,84.1055235 C45.3256389,84.1055235 48.2440231,81.1871393 48.2440231,77.6092333 L48.2440231,77.3619126 C50.2720528,76.784831 51.7559769,74.9216818 51.7559769,72.7287716 L51.7559769,66.5127782 C51.7559769,65.0948063 52.4154988,63.924155 53.6356142,63.198681 C57.5597692,60.8573784 60.8408904,57.5432811 63.1327288,53.6026381 C65.4905194,49.5300907 66.7436109,44.8804617 66.7436109,40.1483924 C66.7436109,25.358615 54.7238252,13.3388293 39.9340478,13.3388293 L39.9505359,13.3388293 Z M41.2695796,33.7180544 C42.143446,34.0972795 43.0832646,34.295136 44.0395713,34.295136 C47.84831,34.295136 50.9480627,31.1953833 50.9480627,27.3866447 C50.9480627,23.577906 47.84831,20.4781533 44.0395713,20.4781533 C40.2308326,20.4781533 42.126958,20.6760099 41.2695796,21.055235 L41.2695796,15.9769167 C53.5531739,16.6364386 63.4295136,26.5127782 64.0890354,38.7963726 L56.4880462,38.7963726 C55.9439406,38.7963726 55.4657873,39.1261336 55.2679308,39.637263 C55.0700742,40.1483924 55.2019786,40.708986 55.5976917,41.088211 C56.4715581,41.9126134 56.9661995,43.0173124 56.9661995,44.2209398 C56.9661995,46.5787304 55.0535862,48.4913438 52.6957955,48.4913438 C50.3380049,48.4913438 48.4253916,46.5787304 48.4253916,44.2209398 C48.4253916,41.8631492 48.9035449,41.9126134 49.7938994,41.088211 C50.1896125,40.725474 50.3215169,40.1483924 50.1236603,39.637263 C49.9258038,39.1261336 49.4311624,38.7963726 48.9035449,38.7963726 L41.2695796,38.7963726 L41.2695796,33.6850783 L41.2695796,33.7180544 Z M27.6009893,60.9233306 C20.6924979,56.801319 16.2572135,49.4311624 15.8285243,41.4674361 L23.4295136,41.4674361 C23.9736191,41.4674361 24.4517725,41.1376752 24.649629,40.6265458 C24.8474856,40.1154163 24.7155812,39.5548228 24.3198681,39.1755977 C23.4460016,38.3511954 22.9513603,37.2464963 22.9513603,36.0428689 C22.9513603,33.6850783 24.8639736,31.772465 27.2217642,31.772465 C29.5795548,31.772465 31.4921682,33.6850783 31.4921682,36.0428689 C31.4921682,38.4006595 31.0140148,38.3511954 30.1236603,39.1755977 C29.7279472,39.5383347 29.5960429,40.1154163 29.7938994,40.6265458 C29.991756,41.1376752 30.4863974,41.4674361 31.0140148,41.4674361 L38.6479802,41.4674361 L38.6479802,46.5787304 C37.7741138,46.1995054 36.8342951,46.0016488 35.8779885,46.0016488 C32.0692498,46.0016488 28.9694971,49.1014015 28.9694971,52.9101401 C28.9694971,56.7188788 32.0692498,59.8186315 35.8779885,59.8186315 C39.6867271,59.8186315 37.7906018,59.6207749 38.6479802,59.2415499 L38.6479802,68.8705688 L30.7831822,68.8705688 L30.7831822,66.5292663 C30.7831822,64.1879637 29.629019,62.159934 27.6174773,60.9563067 L27.6009893,60.9233306 Z M45.6389118,77.5927453 C45.6389118,79.7197032 43.9076669,81.4509481 41.780709,81.4509481 L38.1203627,81.4509481 C35.9934048,81.4509481 34.2621599,79.7197032 34.2621599,77.5927453 L34.2621599,77.5267931 L45.6224237,77.5267931 L45.6224237,77.5927453 L45.6389118,77.5927453 Z M49.1343776,72.7122836 C49.1343776,73.915911 48.1615829,74.9051937 46.9414674,74.9051937 L32.9431162,74.9051937 C31.7394889,74.9051937 30.7502061,73.932399 30.7502061,72.7122836 L30.7502061,71.4756801 L49.1178895,71.4756801 L49.1178895,72.7122836 L49.1343776,72.7122836 Z M52.3000824,60.9233306 C50.2885408,62.126958 49.1343776,64.1549876 49.1343776,66.4962902 L49.1343776,68.8375927 L41.2695796,68.8375927 L41.2695796,56.6859027 C41.2695796,56.1417972 40.9398186,55.6636439 40.4286892,55.4657873 C39.9175598,55.2679308 39.3404782,55.3998351 38.9777411,55.7955482 C38.1533388,56.6694147 37.0486397,57.1640561 35.8450124,57.1640561 C33.4872218,57.1640561 31.5746084,55.2514427 31.5746084,52.8936521 C31.5746084,50.5358615 33.4872218,48.6232481 35.8450124,48.6232481 C38.202803,48.6232481 38.1533388,49.1014015 38.9777411,49.991756 C39.3404782,50.3874691 39.9175598,50.5193735 40.4286892,50.3215169 C40.9398186,50.1236603 41.2695796,49.629019 41.2695796,49.1014015 L41.2695796,41.4674361 L46.3808739,41.4674361 C46.0016488,42.3413026 45.8037923,43.2811212 45.8037923,44.2374279 C45.8037923,48.0461665 48.9035449,51.1459192 52.7122836,51.1459192 C56.5210223,51.1459192 59.6207749,48.0461665 59.6207749,44.2374279 C59.6207749,40.4286892 59.4229184,42.3248145 59.0436933,41.4674361 L64.1055235,41.4674361 C63.6603462,49.4476505 59.2415499,56.8178071 52.3330585,60.9233306 L52.3000824,60.9233306 Z" id="形狀" fill="#393636"></path>
                <path d="M67.6669415,25.2596867 C67.8977741,25.2596867 68.1121187,25.2102226 68.3264633,25.0783182 L74.0478153,21.780709 C74.6743611,21.417972 74.8887057,20.6100577 74.5259687,19.983512 C74.1632317,19.3569662 73.3553174,19.1426216 72.7287716,19.5053586 L67.0074196,22.8029678 C66.3808739,23.1657049 66.1665293,23.9736191 66.5292663,24.6001649 C66.776587,25.0288541 67.2217642,25.2596867 67.6669415,25.2596867 Z" id="路徑" fill="#393636"></path>
                <path d="M78.6809563,38.6479802 L72.0692498,38.6479802 C71.3437758,38.6479802 70.7502061,39.2415499 70.7502061,39.9670239 C70.7502061,40.6924979 71.3437758,41.2860676 72.0692498,41.2860676 L78.6809563,41.2860676 C79.4064303,41.2860676 80,40.6924979 80,39.9670239 C80,39.2415499 79.4064303,38.6479802 78.6809563,38.6479802 Z" id="路徑" fill="#393636"></path>
                <path d="M74.0643034,58.1203627 L68.3429514,54.8227535 C67.7164056,54.4600165 66.9084913,54.6743611 66.5457543,55.3009068 C66.1830173,55.9274526 66.3973619,56.7353669 67.0239077,57.0981039 L72.7452597,60.3957131 C72.9596043,60.5111294 73.1739489,60.5770816 73.4047815,60.5770816 C73.8664468,60.5770816 74.3116241,60.346249 74.5424567,59.9175598 C74.9051937,59.291014 74.6908491,58.4830998 74.0643034,58.1203627 Z" id="路徑" fill="#393636"></path>
                <path d="M39.9505359,9.2497939 C40.6760099,9.2497939 41.2695796,8.65622424 41.2695796,7.93075021 L41.2695796,1.31904369 C41.2695796,0.593569662 40.6760099,0 39.9505359,0 C39.2250618,0 38.6314922,0.593569662 38.6314922,1.31904369 L38.6314922,7.93075021 C38.6314922,8.65622424 39.2250618,9.2497939 39.9505359,9.2497939 Z" id="路徑" fill="#393636"></path>
                <path d="M9.2497939,39.9505359 C9.2497939,39.2250618 8.65622424,38.6314922 7.93075021,38.6314922 L1.31904369,38.6314922 C0.593569662,38.6314922 0,39.2250618 0,39.9505359 C0,40.6760099 0.593569662,41.2695796 1.31904369,41.2695796 L7.93075021,41.2695796 C8.65622424,41.2695796 9.2497939,40.6760099 9.2497939,39.9505359 Z" id="路徑" fill="#393636"></path>
                <path d="M11.5581204,54.8062655 L5.83676834,58.1038747 C5.21022259,58.4666117 4.99587799,59.274526 5.358615,59.9010717 C5.6059357,60.3297609 6.05111294,60.5605936 6.49629019,60.5605936 C6.94146744,60.5605936 6.94146744,60.5111294 7.15581204,60.3792251 L12.8771641,57.0816158 C13.5037098,56.7188788 13.7180544,55.9109646 13.3553174,55.2844188 C12.9925804,54.657873 12.1846661,54.4435284 11.5581204,54.8062655 Z" id="路徑" fill="#393636"></path>
                <path d="M55.3009068,13.3553174 C55.5152514,13.4707337 55.729596,13.5366859 55.9604287,13.5366859 C56.422094,13.5366859 56.8672712,13.3058533 57.0981039,12.8771641 L60.3957131,7.15581204 C60.7584501,6.52926628 60.5441055,5.72135202 59.9175598,5.358615 C59.291014,4.99587799 58.4830998,5.21022259 58.1203627,5.83676834 L54.8227535,11.5581204 C54.4600165,12.1846661 54.6743611,12.9925804 55.3009068,13.3553174 Z" id="路徑" fill="#393636"></path>
                <path d="M1.31904369,28.1286068 L1.31904369,28.1286068 C1.31904369,28.1286068 10.2720528,28.1286068 10.2720528,28.1286068 C10.8161583,28.1286068 11.2943116,27.7988458 11.4921682,27.2877164 C11.6900247,26.776587 11.5581204,26.2159934 11.1624073,25.8367683 C10.2885408,25.012366 9.79389942,23.9076669 9.79389942,22.7040396 C9.79389942,20.346249 11.7065128,18.4336356 14.0643034,18.4336356 C16.422094,18.4336356 18.3347073,20.346249 18.3347073,22.7040396 C18.3347073,25.0618302 17.856554,25.012366 16.9661995,25.8367683 C16.5704864,26.1995054 16.438582,26.776587 16.6364386,27.2877164 C16.8342951,27.7988458 17.3289365,28.1286068 17.856554,28.1286068 L26.8095631,28.1286068 C27.5350371,28.1286068 28.1286068,27.5350371 28.1286068,26.8095631 L28.1286068,20.3792251 C29.0024732,20.7584501 29.9422918,20.9563067 30.8985985,20.9563067 C34.7073372,20.9563067 37.8070899,17.856554 37.8070899,14.0478153 C37.8070899,10.2390767 34.7073372,7.13932399 30.8985985,7.13932399 C27.0898599,7.13932399 28.9859852,7.33718054 28.1286068,7.71640561 L28.1286068,1.31904369 C28.1286068,0.593569662 27.5350371,0 26.8095631,0 C12.0362737,0 0,12.0197857 0,26.8095631 C0,27.5350371 0.593569662,28.1286068 1.31904369,28.1286068 Z M25.4905194,2.67106348 L25.4905194,10.2720528 C25.4905194,10.8161583 25.8202803,11.2943116 26.3314097,11.4921682 C26.8425392,11.6900247 27.4031327,11.5581204 27.7823578,11.1624073 C28.6067601,10.2885408 29.7114592,9.79389942 30.9150866,9.79389942 C33.2728772,9.79389942 35.1854905,11.7065128 35.1854905,14.0643034 C35.1854905,16.422094 33.2728772,18.3347073 30.9150866,18.3347073 C28.557296,18.3347073 28.6067601,17.856554 27.7823578,16.9661995 C27.4196208,16.5704864 26.8425392,16.438582 26.3314097,16.6364386 C25.8202803,16.8342951 25.4905194,17.3289365 25.4905194,17.856554 L25.4905194,25.4905194 L20.3792251,25.4905194 C20.7584501,24.6166529 20.9563067,23.6768343 20.9563067,22.7205276 C20.9563067,18.911789 17.856554,15.8120363 14.0478153,15.8120363 C10.2390767,15.8120363 7.13932399,18.911789 7.13932399,22.7205276 C7.13932399,26.5292663 7.33718054,24.633141 7.71640561,25.4905194 L2.63808739,25.4905194 C3.34707337,13.206925 13.223413,3.33058533 25.4905194,2.67106348 Z" id="形狀" fill="#E50113"></path>
            </g>
        </g>
    </g>
</svg>