<?xml version="1.0" encoding="UTF-8"?>
<svg width="80px" height="86px" viewBox="0 0 80 86" version="1.1" xmlns="http://www.w3.org/2000/svg" xmlns:xlink="http://www.w3.org/1999/xlink">
    <title>icon02</title>
    <g id="Page-1" stroke="none" stroke-width="1" fill="none" fill-rule="evenodd">
        <g id="A-index" transform="translate(-577, -2357)" fill-rule="nonzero">
            <g id="icon02" transform="translate(577, 2357)">
                <path d="M70.6384219,0 L66.9736464,0 C65.3627104,0 65.3627104,2.51989263 66.9736464,2.51989263 L70.6384219,2.51989263 C74.4230809,2.51989263 77.5022582,5.61532874 77.5022582,9.42003064 L77.5022582,38.5788842 C77.5022582,42.3837541 74.4232474,45.4791902 70.6384219,45.4791902 L66.4819571,45.4791902 C66.2077233,45.4791902 65.9411488,45.5702424 65.7231937,45.7384032 L58.0962649,51.6245364 L58.0962649,46.7391366 C58.0962649,46.0433102 57.5373075,45.4791902 56.8474772,45.4791902 L41.6488992,45.4791902 C40.4042742,45.4791902 39.2081021,45.1477404 38.1531263,44.5175992 L38.1531263,30.3739458 C38.1531263,27.7246987 36.815758,25.3840544 34.7848963,23.9992894 L34.7848963,9.42003064 C34.7848963,5.61532874 37.8640736,2.51989263 41.6488992,2.51989263 L59.1479106,2.51989263 C60.7586801,2.51989263 60.7586801,0 59.1479106,0 L41.6488992,0 C36.4869106,0 32.2873211,4.22585995 32.2873211,9.42003064 L32.2873211,22.8918806 C31.7155428,22.7541265 31.1197879,22.6790337 30.5067164,22.6790337 L7.64624344,22.6790337 C3.43016988,22.6790337 0,26.1309506 0,30.3739458 L0,33.0945899 C0,34.7197527 2.49757527,34.7197527 2.49757527,33.0945899 L2.49757527,30.3739458 C2.49757527,27.5204194 4.80716638,25.1989263 7.64624344,25.1989263 L30.5068829,25.1989263 C33.34596,25.1989263 35.6557176,27.5204194 35.6557176,30.3739458 L35.6557176,45.0192258 C35.6407321,45.1304371 35.6413981,45.2424883 35.6557176,45.3528596 L35.6557176,53.3681341 C35.6557176,53.5265514 35.6462268,53.6842966 35.6320739,53.841202 L33.0567407,53.841202 C30.2189957,53.841202 27.8532924,55.9076819 27.3627686,58.6236222 C27.2492122,58.6667963 27.1401514,58.7271058 27.0390829,58.8057264 L21.4536721,63.156909 L21.4536721,59.8030999 C21.4536721,59.1072736 20.8947147,58.5431536 20.2048844,58.5431536 L7.64624344,58.5431536 C4.80716638,58.5431536 2.49757527,56.2216605 2.49757527,53.3681341 L2.49757527,40.6542678 C2.49757527,39.0291051 0,39.0291051 0,40.6542678 L0,53.3683021 C0,57.6112973 3.43016988,61.0632142 7.64624344,61.0632142 L18.9562633,61.0632142 L18.9562633,65.7216558 C18.9562633,66.7323007 20.1725825,67.3385869 20.9683099,66.7190293 L27.2680273,61.8114544 L27.2680273,75.9858504 C27.2680273,79.1987135 29.8650061,81.8123462 33.0569073,81.8123462 L40.7203007,81.8123462 L40.7203007,84.7523889 C40.7203007,85.7626979 41.9366199,86.369656 42.7321808,85.7497624 L47.7866072,81.8123462 L49.2798242,81.8123462 C52.4717254,81.8123462 55.0687041,79.1985455 55.0687041,75.9858504 L55.0687041,73.7488577 C55.0687041,72.123695 52.5711289,72.123695 52.5711289,73.7488577 L52.5711289,75.9858504 C52.5711289,77.8092447 51.0947289,79.2924535 49.2798242,79.2924535 L47.3605208,79.2924535 C47.084289,79.2924535 46.8158829,79.3848496 46.5974283,79.5550264 L43.2177095,82.1876422 L43.2177095,80.5522319 C43.2177095,79.8564055 42.6587521,79.2922855 41.9689218,79.2922855 L33.0567407,79.2922855 C31.2420026,79.2922855 29.7654361,77.8089087 29.7654361,75.9856824 L29.7654361,59.6678657 C29.7654361,57.8444714 31.2418361,56.3612626 33.0567407,56.3612626 L49.2798242,56.3612626 C51.0945624,56.3612626 52.5711289,57.8446394 52.5711289,59.6678657 L52.5711289,65.8531942 C52.5711289,67.4783569 55.0687041,67.4783569 55.0687041,65.8531942 L55.0687041,59.6680337 C55.0687041,56.4551706 52.4717254,53.8415379 49.2798242,53.8415379 L38.1389734,53.8415379 C38.1484642,53.6841286 38.1532928,47.3203918 38.1532928,47.3203918 C39.2543905,47.7670848 40.4349111,47.9992509 41.6490657,47.9992509 L55.5988561,47.9992509 L55.5988561,54.1746677 C55.5988561,55.1827928 56.8100136,55.7897509 57.6064071,55.1754011 L66.9050464,47.9992509 L70.6385884,47.9992509 C75.8004104,47.9992509 80,43.7733909 80,38.5790522 L80,9.42003064 C80,4.22585995 75.8002439,0 70.6384219,0 L70.6384219,0 Z" id="路徑" fill="#393636"></path>
                <path d="M59.6487332,10.1471188 C58.0487019,9.74200299 56.4182595,10.9958457 56.4182595,12.6356401 C56.4182595,14.4272487 55.7599666,16.1538655 54.5655297,17.4965304 L51.0936148,21.3932083 C50.8688072,21.0510846 50.4803506,20.824613 50.0379604,20.824613 L43.2601317,20.824613 C42.564035,20.824613 42,21.3842094 42,22.0744562 L42,37.2000591 C42,37.8903058 42.564035,38.4499023 43.2601317,38.4499023 L50.0379604,38.4499023 C50.5472216,38.4499023 50.9847394,38.1497733 51.1835042,37.7188274 C52.5557036,38.5503897 54.1458219,39 55.763663,39 L67.7419714,39 C69.5723547,39 71.0823286,37.4246976 70.9964716,35.6139247 C70.9583316,34.8120253 71,24.0445424 71,23.8054058 C71,22.0236292 69.5384152,20.5738111 67.7456678,20.5738111 L61.5167525,20.5553134 L61.7746595,19.949556 C62.9533027,17.1810699 62.7592424,13.9708059 61.2561573,11.3616332 C60.9053366,10.752043 60.3342449,10.3209304 59.6487332,10.1471188 C58.9628855,9.97347395 60.3342449,10.3209304 59.6487332,10.1471188 C58.0488699,9.74200299 60.3342449,10.3209304 59.6487332,10.1471188 L59.6487332,10.1471188 Z M48.7778286,35.9502158 L44.5202635,35.9502158 L44.5202635,23.3242994 L48.7778286,23.3242994 L48.7778286,35.9502158 Z M67.7419714,23.0733309 C68.1489099,23.0733309 68.4799045,23.4016231 68.4799045,23.8052391 C68.4799045,24.0430426 68.4773843,24.6884617 68.4740239,25.5635186 C68.455374,30.3949126 68.4429407,34.970672 68.4788964,35.7312433 C68.4920018,36.0057089 68.3574197,36.1886859 68.2760992,36.273342 C68.1353005,36.419657 67.9456087,36.5001469 67.7419714,36.5001469 L55.763663,36.5001469 C54.3358497,36.5001469 52.9384476,36.0093751 51.8285236,35.1183202 L51.2980921,34.6923736 L51.2980921,24.9384303 L56.4547193,19.1509895 C58.0564307,17.3505487 58.938523,15.0366722 58.938523,12.6354734 C58.938523,12.5648156 59.0358051,12.5464846 59.0680645,12.6014777 C60.1840372,14.5384014 60.3278602,16.9216025 59.4529927,18.9768447 L58.4584968,21.3130517 C58.2943436,21.6985034 58.3356759,22.1396147 58.5680442,22.4885709 C58.8007485,22.8375272 59.1939097,23.0478341 59.6154657,23.0491673 L67.7419714,23.0733309 Z" id="形狀" fill="#E50113"></path>
                <path d="M10.2316335,43.0020602 C9.55127917,43.0020602 9,43.5534837 9,44.2336493 C9,44.9138149 9.55127917,45.4652385 10.2316335,45.4652385 L13.8621608,45.4652385 L13.1839412,49.5670871 C13.07293,50.2380569 13.5271564,50.8720789 14.1981504,50.9830862 C14.2663008,50.9944168 14.3337943,51 14.4004667,51 C14.9923077,51 15.5143561,50.5720638 15.6142005,49.9689136 L16.358764,45.4654027 L19.3299568,45.4654027 L18.6517373,49.5672513 C18.540726,50.2382211 18.9949525,50.8722432 19.6659464,50.9832504 C19.7340968,50.994581 19.8015903,51 19.8682627,51 C20.4601037,51 20.9821521,50.572228 21.0819965,49.9690778 L21.8265601,45.4655669 L26.7683665,45.4655669 C27.4487208,45.4655669 28,44.9141434 28,44.2339777 C28,43.5538121 27.4487208,43.0023886 26.7683665,43.0023886 L22.2338202,43.0023886 L22.7305791,39.997968 L26.7683665,39.997968 C27.4487208,39.997968 28,39.4465445 28,38.7663789 C28,38.0862132 27.4487208,37.5347897 26.7683665,37.5347897 L23.1378392,37.5347897 L23.8160588,33.4329411 C23.92707,32.7619713 23.4728436,32.1279492 22.8018496,32.016942 C22.1300346,31.9056063 21.4968107,32.3601448 21.3857995,33.0311146 L20.641236,37.5346255 L17.6700432,37.5346255 L18.3482627,33.4327769 C18.459274,32.7618071 18.0050475,32.127785 17.3340536,32.0167778 C16.6614175,31.9054421 16.0291789,32.3599806 15.9180035,33.0309504 L15.1734399,37.5344613 L10.2316335,37.5344613 C9.55127917,37.5344613 9,38.0858848 9,38.7660504 C9,39.4462161 9.55127917,39.9976396 10.2316335,39.9976396 L14.7661798,39.9976396 L14.2694209,43.0020602 L10.2316335,43.0020602 Z M17.2629473,39.9976396 L20.23414,39.9976396 L19.7373812,43.0020602 L16.7661884,43.0020602 L17.2629473,39.9976396 Z" id="形狀" fill="#393636"></path>
                <path d="M40.9852994,62.984364 C40.001578,62.1292159 38.6928191,61.7918561 37.3799993,62.1288729 C35.6976342,62.5602201 34,64.2207784 34,66.9579038 C34,68.661511 34.5888359,70.1402688 35.8001323,71.4787316 C36.789539,72.5721068 38.2173646,73.6117994 40.4294383,74.8501004 C40.6079571,74.9500906 40.8040192,75 41.0000812,75 C41.1961433,75 41.3922053,74.9500906 41.5707241,74.8501004 C45.429914,72.689934 48,70.5211922 48,66.9579038 C48,64.205857 46.2421015,62.5622783 44.499797,62.1542564 C43.1908757,61.8475968 41.921914,62.1731225 40.9852994,62.984364 L40.9852994,62.984364 Z M45.5632752,66.9579038 C45.5632752,68.879843 44.3558773,70.301145 40.9999188,72.2517264 C37.6439602,70.3009735 36.4363999,68.8796715 36.4363999,66.9579038 C36.4363999,65.5278548 37.2206481,64.8171181 37.9547031,64.6288003 C38.0900136,64.5941553 38.2349078,64.5746032 38.383863,64.5746032 C38.935988,64.5746032 39.5430169,64.8438736 39.9172729,65.610008 C40.1305533,66.045986 40.5616624,66.3162855 41.024122,66.3061665 C41.4885308,66.2963904 41.907457,66.0085969 42.103844,65.5640434 C42.4980798,64.6718492 43.3271607,64.5149177 43.9717127,64.6660179 C44.7413415,64.8459317 45.5632752,65.5427762 45.5632752,66.9579038 L45.5632752,66.9579038 Z" id="形狀" fill="#393636"></path>
            </g>
        </g>
    </g>
</svg>