<?xml version="1.0" encoding="UTF-8"?>
<svg width="80px" height="80px" viewBox="0 0 80 80" version="1.1" xmlns="http://www.w3.org/2000/svg" xmlns:xlink="http://www.w3.org/1999/xlink">
    <title>icon01</title>
    <g id="Page-1" stroke="none" stroke-width="1" fill="none" fill-rule="evenodd">
        <g id="A-index" transform="translate(-210, -2360)" fill-rule="nonzero">
            <g id="icon01" transform="translate(210, 2360)">
                <path d="M72.1384545,3.10406304 L72.4987104,4.6467024 L74.1162901,3.03369805 C74.9016711,2.25053857 76.1750192,2.25053857 76.9604002,3.03369805 C77.7456846,3.81685753 77.7456846,5.08660393 76.9604002,5.86976341 L75.3404071,7.48507797 L76.8857813,7.84335225 C79.9599261,8.55605048 81.050733,12.3604768 78.8190193,14.5859742 L73.6549657,19.735421 C72.6650343,20.7225524 71.4529837,21.4178278 70.1476837,21.7843803 C70.076926,21.8043058 70.0058788,21.8231725 69.9345419,21.8411729 C68.8086941,22.1244618 67.619618,22.1652754 66.4484968,21.9407042 C66.3471387,21.92126 66.2460701,21.8998906 66.1450981,21.8764998 L61.8960673,20.8913899 L57.6430788,25.1323486 C61.6168015,29.7052068 64.0213067,35.6709261 64.0213067,42.1966775 C64.0213067,56.5947412 52.3161764,68.2666667 37.8772717,68.2666667 C23.438367,68.2666667 11.7333333,56.5947412 11.7333333,42.1966775 C11.7333333,27.7986139 23.438367,16.1265921 37.8772717,16.1265921 C42.0824771,16.1265921 46.0557171,17.1166112 49.5754517,18.8756398 C50.753137,19.4641645 50.9269904,21.0188362 49.9954606,21.9477311 C49.3390459,22.6021929 48.3282637,22.727329 47.4924932,22.324487 C44.5849619,20.9230589 41.3231597,20.1373967 37.8772717,20.1373967 C25.6597519,20.1373967 15.7555148,30.0136192 15.7555148,42.1966775 C15.7555148,54.3796396 25.6597519,64.2558621 37.8772717,64.2558621 C50.0948882,64.2558621 59.9991252,54.3796396 59.9991252,42.1966775 C59.9991252,36.7786693 58.0403063,31.8168304 54.7903775,27.9770772 L49.0699158,33.6812621 C50.8797865,36.0431578 51.9548587,38.9947335 51.9548587,42.1966775 C51.9548587,49.9494366 45.6521186,56.2343492 37.8772717,56.2343492 C30.1025215,56.2343492 23.7997813,49.9494366 23.7997813,42.1966775 C23.7997813,34.4438222 30.1025215,28.1589096 37.8772717,28.1589096 C38.4294324,28.1589096 38.9742567,28.1906749 39.5098139,28.2522804 C41.1199607,28.4377706 41.5619788,30.3572622 40.4158593,31.5001398 C39.9028905,32.0117539 39.1733048,32.2261217 38.4489318,32.1856931 C38.2597299,32.1751047 38.0691765,32.1697142 37.8772717,32.1697142 C32.3239063,32.1697142 27.8219628,36.6589237 27.8219628,42.1966775 C27.8219628,47.7343351 32.3239063,52.2235446 37.8772717,52.2235446 C43.4307338,52.2235446 47.9326772,47.7343351 47.9326772,42.1966775 C47.9326772,40.1038244 47.2896803,38.1607495 46.189896,36.5531356 L39.9884175,42.737073 C39.2030365,43.5202325 37.9296884,43.5202325 37.1443074,42.737073 C36.3589265,41.9539135 36.3589265,40.6842633 37.1443074,39.9011039 L59.0543706,18.0530143 L58.0656941,13.8193712 C58.0262127,13.65063 57.9925232,13.4814075 57.9643359,13.3118962 C57.7721416,12.1571787 57.8381692,10.9896589 58.14012,9.88701731 C58.5029822,8.56201851 59.2065044,7.33067927 60.2121704,6.32795406 L65.3769963,1.17766013 C67.6083238,-1.04732714 71.4227693,0.039431776 72.1384545,3.10406304 Z M69.1332332,7.91930024 L68.2211063,4.01370624 L63.0561839,9.16401942 C62.0735889,10.1438351 61.6677701,11.560087 61.9829458,12.909728 L62.3882819,14.6451732 L69.1332332,7.91930024 Z M75.9749092,11.7499088 L72.0676003,10.8440197 L65.3240969,17.5683525 L67.0559701,17.9698469 C68.4089568,18.2835535 69.8285502,17.8788826 70.8108556,16.8993557 L75.9749092,11.7499088 Z" id="形狀" fill="#393636"></path>
                <path d="M37.8666141,4.26666667 C43.2697633,4.26666667 48.4085953,5.39836135 53.059067,7.43761203 C53.824372,7.77319824 54.1661764,8.64545455 53.980016,9.46012166 C53.7054628,10.6617461 52.3584302,11.4745956 51.2258745,10.9882443 C47.126805,9.22766028 42.6106443,8.25266179 37.8666141,8.25266179 C19.1549059,8.25266179 3.98598606,23.4215797 3.98598606,42.1333812 C3.98598606,60.8451826 19.1549059,76.0140049 37.8666141,76.0140049 C56.5784179,76.0140049 71.7473377,60.8451826 71.7473377,42.1333812 C71.7473377,37.312534 70.7404833,32.7268268 68.9255624,28.5751432 C68.4321319,27.446414 69.2347456,26.0949812 70.4336916,25.8118184 C71.2476892,25.6195355 72.1236765,25.9556 72.4644285,26.71947 C74.5653822,31.4280087 75.7333333,36.6443271 75.7333333,42.1333812 C75.7333333,63.0464866 58.7798178,80 37.8666141,80 C16.9535059,80 0,63.0464866 0,42.1333812 C0,21.22018 16.9535059,4.26666667 37.8666141,4.26666667 Z" id="路徑" fill="#E50113"></path>
            </g>
        </g>
    </g>
</svg>