<?xml version="1.0" encoding="UTF-8"?>
<svg width="80px" height="84px" viewBox="0 0 80 84" version="1.1" xmlns="http://www.w3.org/2000/svg" xmlns:xlink="http://www.w3.org/1999/xlink">
    <title>icon04</title>
    <g id="Page-1" stroke="none" stroke-width="1" fill="none" fill-rule="evenodd">
        <g id="A-index" transform="translate(-1310, -2358)" fill-rule="nonzero">
            <g id="icon04" transform="translate(1310, 2358)">
                <path d="M51.8270349,26.4684997 C43.6208955,14.3770725 32.6608312,7.95059964 26.9211699,11.8882073 C26.2891502,12.3339773 25.7399603,12.8871594 25.2984869,13.5226859 C25.2984869,13.56912 12.0110317,40.5008702 12.0110317,40.5008702 L4.59305255,45.5343215 C2.29320027,47.0979434 0.707959612,49.5127677 0.186247307,52.2472835 C-0.335464998,54.9817993 0.249111783,57.8118794 1.81131036,60.1146139 L2.14511942,60.6068148 C5.39897865,65.3540532 11.8604733,66.5961809 16.6379962,63.392858 L28.5531253,80.9727901 C30.3056229,83.1366169 33.6715309,85.291157 37.8255992,82.7558577 C39.3137768,81.7894091 40.3242988,80.2375463 40.6073414,78.4839249 C40.9463138,76.7417155 40.5757294,74.9360853 39.5780968,73.4690473 L29.0816563,57.9600739 C29.0816563,57.9600739 53.8947966,55.9819832 53.9875214,55.944836 C54.7622396,55.7824398 55.4967692,55.4667036 56.1480078,55.0161549 C59.0966545,53.0102039 60.1537166,48.8032788 59.1337444,43.1661848 C58.2157695,37.9748578 55.6102043,32.0963068 51.8270349,26.4684997 Z M4.84340934,58.7773132 L4.50960028,58.2851122 C3.43174264,56.6958374 3.02934839,54.7424271 3.39115801,52.8556691 C3.75296763,50.9689112 4.84926229,49.3037827 6.43827487,48.2274965 L12.8455544,43.8626956 L21.3020506,56.334882 L14.8947711,60.6996829 C13.307618,61.7805874 11.3565722,62.1853252 9.47131375,61.8247608 C7.58605528,61.4641963 5.92120341,60.3679012 4.84340934,58.7773132 L4.84340934,58.7773132 Z M36.9076243,75.2985489 C37.9628076,76.8710456 37.5480101,79.0022468 35.9803769,80.0626827 C34.4074118,81.1204068 32.2766138,80.7052138 31.2143253,79.1340017 L19.3362862,61.6097904 L24.1116102,58.3594067 L25.3726667,58.2572518 L36.9076243,75.2985489 Z M24.3712395,55.0718758 L15.1544004,41.4759853 L23.9447057,23.5245807 C24.7977733,28.5673188 27.2920688,34.5573115 31.2792326,40.4358626 C35.2663964,46.3144136 39.9026334,50.8463771 44.2606962,53.5024048 L24.3712395,55.0718758 Z M51.7250377,52.908049 C47.2927952,52.6201578 40.0788104,47.614567 33.9682501,38.5970741 C27.8576897,29.5795811 25.8733803,21.0450024 27.236434,16.80093 C27.741368,15.1668252 29.2377232,14.0428237 30.9454236,14.0148869 C35.3405762,14.0148869 42.8234627,19.0483381 49.1102001,28.3258617 C52.6522851,33.5450492 55.2300329,39.0056937 55.9347409,43.7791143 C57.3163395,52.908049 51.7250377,52.908049 51.7250377,52.908049 L51.7250377,52.908049 Z" id="形狀" fill="#393636"></path>
                <path d="M40.5294983,26.5068108 C38.2179411,26.0503632 35.8209489,26.5479865 33.8781764,27.8876467 C33.39591,28.223242 33.1283301,28.7920548 33.1762315,29.3798187 C33.2241329,29.9675826 33.5802381,30.4850024 34.1104059,30.737171 C34.6405737,30.9893396 35.2642589,30.9379466 35.7465253,30.6023512 C37.403586,29.4713949 39.5348106,29.3152718 41.3373875,30.1927919 C43.1399643,31.070312 44.3400391,32.8481591 44.4855553,34.8566355 C44.6310714,36.8651119 43.6999216,38.7990822 42.0428609,39.9300385 C41.4533419,40.3393934 41.1975693,41.0870166 41.411871,41.7744221 C41.6261727,42.4618276 42.260614,42.9288426 42.9770353,42.9265463 C43.310028,42.932831 43.6366471,42.834303 43.9112098,42.644743 C46.882718,40.6206724 48.3473554,36.9947286 47.62106,33.4604164 C46.8947645,29.9261042 44.1208545,27.1808422 40.5948906,26.5068108 L40.5294983,26.5068108 Z" id="路徑" fill="#393636"></path>
                <path d="M53.9470955,15.6097561 L54.0840365,15.6097561 C54.806225,15.6094115 55.4113852,14.9746604 55.4856674,14.1395887 L56.5731396,1.85385837 C56.640516,1.26239542 56.4260417,0.675100477 56.0132148,0.320616395 C55.6003879,-0.0338676868 55.0544496,-0.0995199302 54.587942,0.149219082 C54.1214343,0.397958095 53.808082,0.921778833 53.7698778,1.51674991 L52.6904609,13.8118443 C52.6107111,14.7115995 53.1731597,15.5163147 53.9470955,15.6097561 L53.9470955,15.6097561 Z" id="路徑" fill="#E50113"></path>
                <path d="M74.8304174,13.4177391 C74.3324674,12.6651815 73.3219787,12.4567279 72.5681263,12.9510512 L61.2194316,20.4180581 C60.6140628,20.8188105 60.3459063,21.572567 60.5616702,22.2669486 C60.7774341,22.9613301 61.4251346,23.4290399 62.1504155,23.4141947 C62.4797553,23.4217894 62.8038797,23.3308014 63.0813995,23.1528494 L74.4300943,15.6858425 C75.1630033,15.1688516 75.3418629,14.1554901 74.8304174,13.4177391 L74.8304174,13.4177391 Z" id="路徑" fill="#E50113"></path>
                <path d="M78.6139492,32.7469892 L65.3450228,30.2710249 C64.4535426,30.1047874 63.6009809,30.7199113 63.4407729,31.6449424 C63.2805648,32.5699735 63.873378,33.4546215 64.7648582,33.620859 L78.0244271,36.0968234 L78.3145094,36.0968234 C79.1806398,36.1230918 79.9165712,35.44469 79.993455,34.5491252 C80.0703388,33.6535604 79.461559,32.8508629 78.6045917,32.7178602 L78.6139492,32.7469892 Z" id="路徑" fill="#E50113"></path>
            </g>
        </g>
    </g>
</svg>