<svg xmlns="http://www.w3.org/2000/svg" width="41.775" height="30" viewBox="0 0 41.775 30">
  <g id="icon-list" transform="translate(-732.225 -42.028)">
    <g id="Group_1179" data-name="Group 1179">
      <g id="Group_1178" data-name="Group 1178">
        <g id="Group_1177" data-name="Group 1177">
          <g id="Group_1176" data-name="Group 1176">
            <path id="Path_748" data-name="Path 748" d="M735.259,42.028h35.708a3.036,3.036,0,0,1,0,6.072l-35.708,0a3.035,3.035,0,0,1,0-6.069Z" fill="red"/>
          </g>
        </g>
      </g>
    </g>
    <g id="Group_1183" data-name="Group 1183">
      <g id="Group_1182" data-name="Group 1182">
        <g id="Group_1181" data-name="Group 1181">
          <g id="Group_1180" data-name="Group 1180">
            <path id="Path_749" data-name="Path 749" d="M735.259,53.991h35.708a3.037,3.037,0,0,1,0,6.073H735.259a3.037,3.037,0,0,1,0-6.073Z" fill="red"/>
          </g>
        </g>
      </g>
    </g>
    <g id="Group_1187" data-name="Group 1187">
      <g id="Group_1186" data-name="Group 1186">
        <g id="Group_1185" data-name="Group 1185">
          <g id="Group_1184" data-name="Group 1184">
            <path id="Path_750" data-name="Path 750" d="M735.259,65.956h35.708a3.036,3.036,0,0,1,0,6.072l-35.708,0a3.035,3.035,0,0,1,0-6.07Z" fill="red"/>
          </g>
        </g>
      </g>
    </g>
  </g>
</svg>
