<svg xmlns="http://www.w3.org/2000/svg" width="27.021" height="30" viewBox="0 0 27.021 30">
  <g id="icon-user" transform="translate(-606.401 -42.028)">
    <g id="Group_1174" data-name="Group 1174">
      <path id="Path_746" data-name="Path 746" d="M632.724,65a13.06,13.06,0,0,0-2.592-4.983,10.657,10.657,0,0,0-4.346-3,9.128,9.128,0,0,1-11.75,0,10.77,10.77,0,0,0-3.651,2.27,12.46,12.46,0,0,0-3.271,5.666,21.939,21.939,0,0,0-.707,4.153,2.719,2.719,0,0,0,2.742,2.917h21.527a2.721,2.721,0,0,0,2.741-2.917A21.751,21.751,0,0,0,632.724,65Z" fill="red"/>
      <path id="Path_747" data-name="Path 747" d="M619.912,58a7.984,7.984,0,1,0-7.986-7.983A7.983,7.983,0,0,0,619.912,58Z" fill="red"/>
    </g>
  </g>
</svg>
