<?xml version="1.0" encoding="UTF-8"?>
<svg width="121px" height="45px" viewBox="0 0 121 45" version="1.1" xmlns="http://www.w3.org/2000/svg" xmlns:xlink="http://www.w3.org/1999/xlink">
    <title>logo</title>
    <defs>
        <polygon id="path-1" points="0 0 18 0 18 19 0 19"></polygon>
    </defs>
    <g id="Page-1" stroke="none" stroke-width="1" fill="none" fill-rule="evenodd">
        <g id="A-index" transform="translate(-80, -18)">
            <g id="logo" transform="translate(80, 18)">
                <path d="M24.0001176,45 L2.99988241,45 C1.34992062,45 0,43.65009 0,42.0001411 L0,2.99985889 C0,1.34991004 1.34992062,0 2.99988241,0 L24.0001176,0 C25.6500794,0 27,1.34991004 27,2.99985889 L27,42.0001411 C27,43.65009 25.6500794,45 24.0001176,45" id="Fill-1" fill="#E50113"></path>
                <path d="M13.2270703,36.4919614 C15.4493574,36.4919614 16.3073853,34.7759914 16.3073853,32.7004287 L16.3073853,7.71436227 C16.3461248,6.27759914 17.6721679,5 19.1536926,5 C20.7132199,5 22,6.23740622 22,7.71436227 L22,32.7004287 C22,37.7293676 19.6211844,42 13.1878073,42 C12.7590551,42 12.0182928,41.9201501 11.1607883,41.7207931 C9.83526872,41.4013934 8.85997525,40.2834941 9.01650383,38.8472669 C9.13324588,37.4099678 10.3420235,36.2926045 11.7062826,36.4121115 C12.447045,36.4919614 13.1098048,36.4919614 13.2270703,36.4919614" id="Fill-3" fill="#FEFEFE"></path>
                <path d="M44.9800999,32.3681558 C49.6668459,32.3681558 53.1520553,28.6006352 53.1520553,24.0396721 C53.1520553,19.478709 49.6668459,15.6313117 44.9800999,15.6313117 C40.2933538,15.6313117 36.8484825,19.478709 36.8484825,24.0396721 C36.8484825,28.6006352 40.2933538,32.3681558 44.9800999,32.3681558 M44.9800999,10 C52.8315021,10 59,16.2660657 59,24.0396721 C59,31.7339343 52.8315021,38 44.9800999,38 C37.1690357,38 31,31.7339343 31,24.0396721 C31,16.2660657 37.1690357,10 44.9800999,10" id="Fill-5" fill="#393636"></path>
                <path d="M73.8493336,25.3791912 L73.8493336,35.2752911 C73.8493336,36.757877 72.5432894,38 70.9604149,38 C69.4567106,38 68.0714961,36.7180688 68.0714961,35.2752911 L68.0714961,25.2995749 L60.3941028,14.3211228 C59.6422507,13.1591541 59.9987827,11.3564888 61.1858058,10.5151374 C62.4126797,9.67378604 64.1533635,9.87390286 64.9450664,11.0358715 L70.9604149,20.5311997 L77.0549336,11.0358715 C77.8067857,9.87390286 79.5873203,9.67378604 80.8141942,10.5151374 C82.0012173,11.3564888 82.3577493,13.1591541 81.6058972,14.3211228 L73.8493336,25.3791912 Z" id="Fill-7" fill="#393636"></path>
                <path d="M98.3896175,35.5237558 C98.3896175,36.9214366 97.0874317,38 95.5409836,38 C94.0349727,38 92.7322404,36.8817481 92.6918033,35.5237558 L92.6918033,21.4225185 C92.7322404,20.0645263 94.0349727,18.9462743 95.5409836,18.9462743 C97.0874317,18.9462743 98.3896175,20.0248377 98.3896175,21.4225185 L98.3896175,35.5237558 Z M95.5409836,9 C97.4535519,9 99,10.3982172 99,12.2356901 C99,14.0726267 97.4535519,15.5110688 95.5409836,15.5110688 C93.6278689,15.5110688 92,14.0726267 92,12.2356901 C92,10.3982172 93.6278689,9 95.5409836,9 L95.5409836,9 Z" id="Fill-9" fill="#393636"></path>
                <g id="群組" transform="translate(103, 19)">
                    <mask id="mask-2" fill="white">
                        <use xlink:href="#path-1"></use>
                    </mask>
                    <g id="Clip-12"></g>
                    <path d="M5.63763832,3.0745724 C6.64437876,1.22210151 8.85899146,0 11.0736042,0 C15.3022384,0 18.0002163,2.56223188 18.0002163,7.80525377 L18.0002163,16.5563263 C18.0002163,17.9361524 16.7112425,19 15.1811268,19 C13.6915618,19 12.402588,17.8964566 12.3625779,16.5563263 L12.3625779,8.98765948 C12.3625779,6.54345646 10.9930433,5.32135495 9.10067404,5.32135495 C7.12720326,5.32135495 5.63763832,6.26770294 5.63763832,9.06652181 L5.63763832,16.5563263 C5.63763832,17.9361524 4.3492052,19 2.8190895,19 C1.32898389,19 0.0400100926,17.8964566 0,16.5563263 L0,2.64109421 C0.0400100926,1.30043456 1.32898389,0.196891192 2.8190895,0.196891192 C4.3492052,0.196891192 5.63763832,1.26126804 5.63763832,2.64109421 L5.63763832,3.0745724 Z" id="Fill-11" fill="#393636" mask="url(#mask-2)"></path>
                </g>
            </g>
        </g>
    </g>
</svg>